<svg id="Layer_1" data-name="Layer 1" xmlns="http://www.w3.org/2000/svg" viewBox="0 0 200 200"><defs><style>.cls-1,.cls-2{fill:#255687;}.cls-1,.cls-5{stroke:#333;}.cls-1,.cls-2,.cls-3,.cls-4{stroke-linejoin:round;stroke-width:10px;}.cls-2{stroke:#255687;}.cls-3{fill:#d2d241;stroke:#d2d241;}.cls-4{fill:#f4f4f4;stroke:#f4f4f4;}.cls-5{fill:#1582a9;stroke-miterlimit:10;}</style></defs><path class="cls-1" d="M84,113.89l15.83,39.55H80L63.46,113.89H40.33v39.55H20.55V67.75q0-13.19,13.19-13.19H86.47q13.19,0,13.18,13.19v33q0,13.18-13.18,13.19ZM79.88,94.11V74.34H40.33V94.11Z"/><path class="cls-1" d="M179.45,54.56V74.34H153.08v79.1H133.31V74.34H106.94V54.56Z"/><path class="cls-2" d="M84,112.89l15.83,39.55H80L63.46,112.89H40.33v39.55H20.55V66.75q0-13.19,13.19-13.19H86.47q13.19,0,13.18,13.19v33q0,13.18-13.18,13.19ZM79.88,93.11V73.34H40.33V93.11Z"/><path class="cls-2" d="M179.45,53.56V73.34H153.08v79.1H133.31V73.34H106.94V53.56Z"/><path class="cls-3" d="M84,109.89l15.83,39.55H80L63.46,109.89H40.33v39.55H20.55V63.75q0-13.19,13.19-13.19H86.47q13.19,0,13.18,13.19v33q0,13.18-13.18,13.19ZM79.88,90.11V70.34H40.33V90.11Z"/><path class="cls-3" d="M179.45,50.56V70.34H153.08v79.1H133.31V70.34H106.94V50.56Z"/><path class="cls-4" d="M84,105.89h2.51q13.19,0,13.18-13.19V59.75q0-13.19-13.18-13.19H33.74q-13.19,0-13.19,13.19v85.69H40.33V105.89H63.46L80,145.44H99.79ZM79.88,86.11H40.33V66.34H79.88Z"/><polygon class="cls-4" points="106.94 46.56 106.94 66.34 133.31 66.34 133.31 145.44 153.08 145.44 153.08 66.34 179.45 66.34 179.45 46.56 106.94 46.56"/><path class="cls-5" d="M84,105.89l15.83,39.55H80L63.46,105.89H40.33v39.55H20.55V59.75q0-13.19,13.19-13.19H86.47q13.19,0,13.18,13.19v33q0,13.2-13.18,13.19ZM79.88,86.11V66.34H40.33V86.11Z"/><path class="cls-5" d="M179.45,46.56V66.34H153.08v79.1H133.31V66.34H106.94V46.56Z"/></svg>